 <svg  version="1.0" xmlns="http://www.w3.org/2000/svg"  width="1148.000000pt" height="578.000000pt" viewBox="0 0 1148.000000 578.000000"  preserveAspectRatio="xMidYMid meet">  <g transform="translate(0.000000,578.000000) scale(0.100000,-0.100000)" fill="#ffffff" stroke="none"> <path d="M1345 5607 c8 -20 15 -46 15 -57 0 -31 -34 -91 -70 -125 -41 -39 -70 -96 -70 -137 0 -18 13 -55 30 -83 33 -56 36 -73 16 -100 -12 -16 -16 -17 -29 -6 -9 7 -18 22 -20 34 -3 20 -4 20 -15 -6 -15 -36 -15 -92 -1 -120 7 -12 27 -39 45 -59 38 -42 52 -84 35 -101 -8 -8 -11 -5 -11 11 0 12 -13 36 -29 54 l-29 33 5 -27 c3 -18 -2 -39 -16 -61 -14 -23 -21 -51 -21 -86 0 -59 -12 -65 -40 -19 -33 54 -34 96 -4 184 35 102 37 183 6 239 l-23 40 6 -40 c7 -47 -13 -127 -57 -240 -32 -78 -32 -84 -36 -272 -5 -241 2 -269 92 -358 76 -76 122 -99 202 -99 111 0 197 72 236 197 34 106 32 213 -5 291 -36 77 -34 106 10 177 40 66 48 123 22 171 l-14 28 0 -41 c0 -43 -25 -73 -55 -67 -27 6 -18 86 15 136 48 72 44 167 -9 211 -13 11 -13 9 -4 -16 19 -50 2 -97 -58 -165 -33 -39 -60 -80 -68 -107 l-13 -45 -11 34 c-20 55 -14 96 23 166 38 71 43 113 20 165 l-14 34 -1 -41 c0 -64 -51 -100 -70 -50 -11 30 -2 64 39 136 17 30 31 70 31 88 0 35 -29 100 -54 121 -15 12 -15 10 -1 -22z m-35 -1067 l0 -100 -30 0 c-25 0 -30 4 -30 24 0 13 -13 49 -29 79 l-29 56 41 20 c75 37 77 35 77 -79z m98 80 l43 -20 -25 -42 c-13 -24 -28 -60 -31 -80 -6 -34 -11 -38 -36 -38 l-29 0 0 100 c0 114 1 115 78 80z m-200 -100 c35 -71 32 -80 -33 -80 -52 0 -55 1 -55 25 0 34 38 107 53 103 7 -2 22 -24 35 -48z m293 14 c10 -16 20 -44 24 -61 l7 -33 -61 0 c-34 0 -61 4 -61 9 0 15 23 76 38 99 18 28 32 24 53 -14z m-277 -146 c-3 -13 -15 -40 -26 -61 -17 -33 -21 -37 -35 -25 -18 14 -43 69 -43 93 0 12 12 15 56 15 53 0 55 -1 48 -22z m86 -69 l0 -92 -34 6 c-19 3 -46 13 -59 22 l-25 16 29 52 c16 29 29 60 29 70 0 12 8 17 30 17 l30 0 0 -91z m80 77 c0 -7 13 -39 29 -70 l29 -57 -23 -15 c-13 -8 -39 -18 -59 -21 l-36 -6 0 92 0 91 30 0 c19 0 30 -5 30 -14z m135 -8 c-11 -37 -40 -91 -51 -95 -10 -3 -47 55 -59 95 -6 21 -4 22 55 22 59 0 61 -1 55 -22z"/> <path d="M815 5345 c-5 -2 -23 -6 -38 -9 l-28 -7 3 -542 c3 -520 4 -544 25 -604 29 -87 63 -140 125 -200 102 -96 201 -132 379 -140 98 -4 144 -2 203 11 212 48 347 182 391 392 12 55 15 167 15 556 l0 487 -23 27 c-20 23 -32 28 -73 28 -27 0 -61 -3 -76 -7 l-27 -7 -3 -528 c-3 -521 -3 -528 -26 -583 -46 -114 -145 -188 -279 -209 -175 -27 -339 53 -406 198 -21 46 -22 61 -27 567 -3 286 -9 526 -14 534 -17 26 -88 47 -121 36z"/> <path d="M154 4647 c-2 -8 -3 -165 -2 -351 l3 -338 37 -33 c23 -21 61 -41 103 -54 171 -53 348 4 408 131 53 112 41 274 -29 365 -65 86 -214 121 -326 78 -16 -7 -18 1 -18 84 0 118 -11 131 -105 131 -45 0 -67 -4 -71 -13z m343 -344 c35 -23 53 -71 53 -143 0 -103 -34 -154 -113 -167 -19 -3 -51 0 -71 7 l-36 12 0 142 c0 138 1 143 23 154 35 17 114 14 144 -5z"/> <path d="M2427 4653 c-4 -3 -7 -172 -7 -374 0 -334 2 -369 18 -388 20 -25 75 -36 126 -27 l35 7 3 114 3 114 85 -101 c47 -56 99 -109 115 -119 45 -28 91 -25 126 10 49 49 41 68 -71 173 -55 51 -100 98 -100 103 0 6 28 33 61 60 85 70 119 111 119 144 0 33 -34 68 -81 81 -34 10 -34 9 -146 -102 l-113 -113 0 193 c0 231 0 232 -103 232 -35 0 -67 -3 -70 -7z"/> <path d="M3523 4593 c-10 -4 -13 -75 -13 -309 0 -286 1 -307 20 -344 27 -54 84 -82 175 -87 79 -5 131 14 151 55 10 20 12 21 24 7 67 -81 317 -87 409 -10 61 52 78 164 33 224 -26 36 -78 69 -126 81 -114 29 -151 45 -154 67 -7 51 79 68 187 34 57 -18 61 -18 76 -2 19 22 19 70 0 98 -24 35 -100 58 -190 58 -99 0 -161 -22 -208 -74 l-35 -39 -6 39 -6 38 -88 3 -87 3 -5 68 c-6 83 -20 97 -94 96 -28 0 -57 -3 -63 -6z m341 -287 c-7 -41 10 -102 39 -133 26 -29 86 -56 172 -77 38 -10 75 -22 82 -28 19 -16 16 -56 -6 -68 -37 -19 -142 -12 -198 14 -49 23 -52 23 -67 7 -9 -10 -16 -24 -16 -31 0 -11 -3 -11 -16 2 -13 13 -23 14 -51 6 -46 -12 -90 -2 -109 27 -11 17 -14 50 -12 146 l3 124 78 3 c64 2 79 6 90 22 17 28 19 25 11 -14z"/> <path d="M2151 4459 c-104 -18 -187 -82 -228 -176 -11 -26 -17 -66 -17 -128 0 -78 4 -98 28 -147 46 -97 123 -143 257 -155 79 -7 170 16 194 49 21 31 19 81 -4 102 -18 16 -22 16 -70 0 -140 -46 -248 49 -221 194 18 100 131 151 237 107 33 -14 37 -14 49 2 22 29 17 86 -8 111 -44 40 -127 56 -217 41z"/> <path d="M3159 4460 c-93 -16 -175 -77 -213 -160 -30 -66 -29 -206 2 -275 64 -140 219 -203 404 -164 70 15 124 66 113 107 -3 15 -13 35 -22 44 -14 16 -18 16 -64 -3 -62 -24 -165 -25 -212 -3 -40 19 -76 71 -55 78 7 3 84 15 172 27 186 27 206 37 206 102 0 163 -151 276 -331 247z m132 -159 c45 -46 39 -57 -38 -71 -38 -6 -90 -14 -117 -17 l-49 -6 7 29 c4 16 22 44 41 62 29 26 43 32 81 32 37 0 51 -5 75 -29z"/> </g> </svg> 