<svg width="122" height="68" viewBox="0 0 122 68" fill="none" xmlns="http://www.w3.org/2000/svg">
<g filter="url(#filter0_d_91_1112)">
<path d="M35.7803 40.5215C35.8833 40.5216 35.9791 40.5512 36.0615 40.6006C36.1439 40.5512 36.2398 40.5216 36.3428 40.5215H48.3438C48.6474 40.5216 48.8936 40.7676 48.8936 41.0713V42.0713C48.8933 42.3747 48.6472 42.621 48.3438 42.6211H47.1992C47.0863 42.6213 46.9775 42.6646 46.8945 42.7412L46.8818 42.752L46.6689 42.9766L46.3867 43.3398L46.3877 43.3408L46.3848 43.3438L46.1348 43.6123L45.9131 43.873L45.7021 44.1846V44.1855L45.6992 44.1885L45.4688 44.4736L45.2686 44.7705L45.0146 45.1572L45.0137 45.1592L44.7324 45.5576L44.5186 45.8789H44.5176L44.3105 46.2969L44.3096 46.2979L44.0244 46.8291L43.7744 47.2979L43.5146 47.8281V47.8291L43.2422 48.4629V48.4639L43.0234 49.0615L42.8525 49.625L42.6768 50.2412L42.5684 50.6484V50.6494L42.459 51.0869L42.3545 51.5078V51.5088L42.2725 52.001L42.2715 52.0039L42.1904 52.3604C42.1853 52.3832 42.1813 52.4073 42.1797 52.4307L42.1396 53.0312V53.0322L42.085 53.7119V55.9697L42.1201 56.7656L42.1982 57.5215C42.2217 57.695 42.2694 58.0467 42.2725 58.0684C42.2744 58.0834 42.2776 58.1432 42.2812 58.207C42.285 58.2728 42.2894 58.3484 42.292 58.3984L42.3066 58.542C42.3101 58.5765 42.3107 58.6119 42.3076 58.6465L42.2969 58.7598C42.2925 58.8073 42.2745 58.8538 42.2441 58.8906L42.2412 58.8926C42.2343 58.9011 42.2288 58.9118 42.2246 58.9219L42.2188 58.9355C42.1978 58.9853 42.1551 59.0234 42.1035 59.0391C42.0868 59.044 42.0682 59.0468 42.0508 59.0469H41.9834C41.9558 59.0469 41.9277 59.0452 41.9004 59.041L41.8135 59.0273C41.7975 59.0249 41.7809 59.0235 41.7646 59.0234H41.7139C41.7015 59.0234 41.6885 59.0215 41.6768 59.0176L41.6455 59.0068C41.625 59 41.5862 58.9869 41.5479 58.9746C41.5086 58.962 41.4729 58.9513 41.4561 58.9482C41.3654 58.932 41.3012 58.9066 41.2764 58.8926L41.2109 58.8555C41.18 58.8379 41.1465 58.8233 41.1123 58.8135L41.0059 58.7832H41.0039L40.9277 58.7578C40.8955 58.7474 40.8638 58.7339 40.834 58.7178L40.8291 58.7158C40.8039 58.7022 40.7757 58.6925 40.7432 58.6826C40.7119 58.6731 40.6744 58.6628 40.6396 58.6475C40.6328 58.6445 40.624 58.6393 40.6162 58.6328C40.615 58.6321 40.6099 58.6292 40.5996 58.624C40.5884 58.6183 40.5732 58.6115 40.5576 58.6045C40.5266 58.5906 40.492 58.5763 40.4697 58.5674L40.4688 58.5664L40.2773 58.4844L40.2783 58.4834L40.0381 58.3867L40.0371 58.3877L39.7881 58.293L39.6816 58.2637L39.5928 58.2383C39.5603 58.2287 39.5282 58.2156 39.498 58.2002L39.375 58.1377C39.3593 58.1297 39.3418 58.1251 39.3242 58.125C39.3049 58.125 39.2854 58.1302 39.2686 58.1396L39.126 58.2207L39.1221 58.2227L38.8994 58.3193L38.7139 58.418V58.4189L38.5059 58.5449C38.4839 58.5582 38.4601 58.57 38.4365 58.5801L38.2061 58.6777V58.6787L37.9053 58.8262L37.625 58.9746L37.6211 58.9766L37.4414 59.0508L37.4395 59.0518L37.1631 59.1523V59.1533L36.9443 59.2393L36.7041 59.3477C36.6729 59.3617 36.6397 59.3728 36.6064 59.3809L36.4414 59.4199L36.333 59.458V59.4707C36.3327 59.5299 36.2849 59.5781 36.2256 59.5781C36.2148 59.5781 36.2037 59.5765 36.1934 59.5732L36.0615 59.5312L35.9297 59.5732C35.9195 59.5764 35.9081 59.5781 35.8975 59.5781C35.8383 59.578 35.7903 59.5298 35.79 59.4707V59.458L35.6816 59.4199L35.5166 59.3809C35.4831 59.3728 35.4503 59.3618 35.4189 59.3477L35.1787 59.2393L34.96 59.1533V59.1523L34.6836 59.0518L34.6816 59.0508L34.502 58.9766L34.498 58.9746L34.2178 58.8262L33.917 58.6787V58.6777L33.6865 58.5801C33.6627 58.5699 33.6393 58.5583 33.6172 58.5449L33.4092 58.4189V58.418L33.2236 58.3193L33.001 58.2227L32.9971 58.2207L32.8545 58.1396C32.8376 58.1301 32.8183 58.125 32.7988 58.125C32.7812 58.1251 32.7638 58.1297 32.748 58.1377L32.625 58.2002C32.5948 58.2155 32.5627 58.2287 32.5303 58.2383L32.4414 58.2637L32.335 58.293L32.0859 58.3877L32.085 58.3867L31.8447 58.4834L31.8457 58.4844L31.6543 58.5664L31.6533 58.5674C31.631 58.5763 31.5963 58.5907 31.5654 58.6045C31.5499 58.6114 31.5346 58.6183 31.5234 58.624C31.5133 58.6292 31.508 58.6321 31.5068 58.6328C31.4991 58.6392 31.4902 58.6445 31.4834 58.6475C31.4486 58.6627 31.4112 58.6731 31.3799 58.6826C31.3474 58.6925 31.3191 58.7022 31.2939 58.7158L31.2891 58.7178C31.2593 58.7339 31.2275 58.7474 31.1953 58.7578L31.1191 58.7832H31.1172L31.0107 58.8135C30.9766 58.8233 30.943 58.838 30.9121 58.8555L30.8467 58.8926C30.8217 58.9066 30.7575 58.9321 30.667 58.9482C30.6501 58.9513 30.6144 58.962 30.5752 58.9746C30.5369 58.9869 30.498 59 30.4775 59.0068L30.4463 59.0176C30.4345 59.0215 30.4216 59.0234 30.4092 59.0234H30.3584C30.3421 59.0235 30.3256 59.0249 30.3096 59.0273L30.2227 59.041C30.1953 59.0452 30.1673 59.0469 30.1396 59.0469H30.0723C30.0547 59.0468 30.0364 59.0441 30.0195 59.0391C29.9678 59.0234 29.9252 58.9854 29.9043 58.9355L29.8984 58.9219C29.8942 58.9117 29.8888 58.9011 29.8818 58.8926L29.8789 58.8906C29.8485 58.8537 29.8305 58.8074 29.8262 58.7598L29.8154 58.6465C29.8124 58.6119 29.8129 58.5765 29.8164 58.542L29.8311 58.3984C29.8337 58.3484 29.838 58.2728 29.8418 58.207C29.8455 58.1432 29.8486 58.0834 29.8506 58.0684C29.8537 58.0467 29.9013 57.695 29.9248 57.5215L30.0029 56.7656L30.0381 55.9697V53.7119L29.9834 53.0322V53.0312L29.9434 52.4307C29.9418 52.4073 29.9378 52.3832 29.9326 52.3604L29.8516 52.0039L29.8506 52.001L29.7686 51.5088V51.5078L29.6641 51.0869L29.5547 50.6494V50.6484L29.4463 50.2412L29.2705 49.625L29.0996 49.0615L28.8809 48.4639V48.4629L28.6084 47.8291V47.8281L28.3486 47.2979L28.0986 46.8291L27.8135 46.2979L27.8125 46.2969L27.6055 45.8789H27.6045L27.3906 45.5576L27.1094 45.1592L27.1084 45.1572L26.8545 44.7705L26.6543 44.4736L26.4238 44.1885L26.4209 44.1855V44.1846L26.21 43.873L25.9883 43.6123L25.7383 43.3438L25.7354 43.3408L25.7363 43.3398L25.4541 42.9766L25.2412 42.752L25.2285 42.7412C25.1455 42.6644 25.0369 42.6212 24.9238 42.6211H23.7793C23.4758 42.621 23.2298 42.3747 23.2295 42.0713V41.0713C23.2295 40.7676 23.4757 40.5216 23.7793 40.5215H35.7803ZM35.9902 56.5811L35.9854 56.584L35.7158 56.6855L35.5342 56.7812C35.4967 56.8009 35.462 56.8271 35.4297 56.8564C35.4031 56.8805 35.3723 56.9065 35.3457 56.9277C35.3326 56.9382 35.3192 56.9483 35.3076 56.9561C35.2973 56.9629 35.2825 56.9726 35.2686 56.9766C35.2635 56.9781 35.2502 56.983 35.2295 56.9922C35.2088 57.0014 35.1826 57.0135 35.1553 57.0264C35.1006 57.0522 35.04 57.0823 35.001 57.1016H35L34.8154 57.1895L34.8115 57.1914L34.5381 57.2891L34.5391 57.29L34.3594 57.3584C34.3301 57.3697 34.3017 57.3843 34.2754 57.4014L34.0859 57.5244L34.0166 57.5713C33.9971 57.5849 33.9948 57.6142 34.0127 57.6299C34.0152 57.632 34.0185 57.6334 34.0215 57.6348L34.1562 57.7002H34.1572L34.3965 57.8164L34.3984 57.8184L34.542 57.8975L34.7217 57.9795H34.7207L34.9131 58.0605H34.9121L35.2148 58.1768L35.2217 58.1797L35.5664 58.3711C35.5935 58.3861 35.6228 58.3981 35.6523 58.4072L35.9785 58.5078H35.9795C36.008 58.5149 36.0355 58.5243 36.0615 58.5361C36.0874 58.5243 36.1151 58.5148 36.1436 58.5078H36.1445L36.4707 58.4072C36.5001 58.3982 36.5297 58.3859 36.5566 58.3711L36.9014 58.1797L36.9082 58.1768L37.2109 58.0605H37.21L37.4023 57.9795H37.4014L37.5811 57.8975L37.7246 57.8184L37.7266 57.8164L37.9658 57.7002H37.9668L38.1016 57.6348C38.1044 57.6334 38.1079 57.6318 38.1104 57.6299C38.1282 57.6141 38.126 57.5848 38.1064 57.5713L38.0371 57.5244L37.8477 57.4014C37.8213 57.3842 37.793 57.3697 37.7637 57.3584L37.584 57.29L37.585 57.2891L37.3115 57.1914L37.3076 57.1895L37.123 57.1016H37.1221C37.083 57.0822 37.0225 57.0522 36.9678 57.0264C36.9404 57.0135 36.9143 57.0014 36.8936 56.9922C36.8726 56.9829 36.8594 56.9781 36.8545 56.9766C36.8405 56.9725 36.8257 56.9629 36.8154 56.9561C36.8038 56.9483 36.7905 56.9382 36.7773 56.9277C36.7507 56.9065 36.7199 56.8806 36.6934 56.8564C36.661 56.8271 36.6264 56.8009 36.5889 56.7812L36.4072 56.6855L36.1377 56.584L36.1328 56.5811L36.0615 56.5439L35.9902 56.5811ZM31.0381 56.9785C30.9726 56.9788 30.9176 57.0276 30.9102 57.0928L30.8721 57.4307L30.8643 57.5264C30.8522 57.6796 30.9733 57.8112 31.127 57.8115C31.161 57.8115 31.196 57.8048 31.2275 57.792L31.4531 57.7002V57.6992C31.601 57.6306 31.6277 57.4319 31.5029 57.3271L31.1211 57.0078C31.0979 56.9885 31.0683 56.9785 31.0381 56.9785ZM41.085 56.9785C41.0549 56.9786 41.0251 56.9887 41.002 57.0078L40.6201 57.3271C40.4957 57.4319 40.5222 57.6306 40.6699 57.6992V57.7002L40.8955 57.792C40.9271 57.8048 40.962 57.8115 40.9961 57.8115C41.1498 57.8112 41.2709 57.6796 41.2588 57.5264L41.251 57.4307L41.2129 57.0928C41.2055 57.0276 41.1505 56.9788 41.085 56.9785ZM33.3955 54.6191L31.1953 55.7705C31.186 55.7755 31.177 55.7821 31.1699 55.79C31.1345 55.8302 31.1415 55.8932 31.1855 55.9238L32.7002 56.9736C32.7667 57.0198 32.8468 57.0449 32.9277 57.0449C32.9892 57.0448 33.0504 57.0304 33.1055 57.0029L35.2598 55.9238C35.2652 55.9211 35.2706 55.9169 35.2754 55.9131L35.3291 55.8721C35.3468 55.858 35.3475 55.831 35.3311 55.8154C35.3297 55.8142 35.3277 55.8126 35.3262 55.8115L33.5654 54.6172L33.5566 54.6133C33.5068 54.5867 33.4466 54.5887 33.3984 54.6182L33.3721 54.5752L33.3955 54.6191ZM38.7246 54.6182C38.6765 54.5887 38.6162 54.5868 38.5664 54.6133L38.5576 54.6172L36.7969 55.8115C36.7954 55.8125 36.7933 55.8143 36.792 55.8154C36.7758 55.831 36.7764 55.8581 36.7939 55.8721L36.8477 55.9131C36.8525 55.9169 36.8578 55.921 36.8633 55.9238L39.0176 57.0029C39.0726 57.0304 39.1338 57.0448 39.1953 57.0449C39.2761 57.0449 39.3564 57.0196 39.4229 56.9736L40.9375 55.9238C40.9815 55.8932 40.9886 55.8302 40.9531 55.79C40.946 55.7821 40.9372 55.7755 40.9277 55.7705L38.7275 54.6191L38.75 54.5752L38.7246 54.6182ZM35.9736 52.9189C35.9481 52.9388 35.9212 52.9576 35.8926 52.9727L35.751 53.0469C35.7307 53.0576 35.7108 53.0703 35.6924 53.084L35.4346 53.2754L35.4326 53.2764L35.167 53.4551L34.9883 53.585L34.9844 53.5879L34.9834 53.5869L34.8584 53.6582L34.6641 53.7998H34.6631L34.5029 53.9092C34.4974 53.9129 34.4912 53.9174 34.4863 53.9219L34.4248 53.9795C34.4057 53.9974 34.4029 54.0271 34.4189 54.0479C34.4221 54.0518 34.4256 54.0558 34.4297 54.0586L34.5889 54.167L34.5938 54.1699L34.7812 54.334L34.9863 54.4707L35.1631 54.585L35.3848 54.708L35.3877 54.71L35.5635 54.8262L35.5674 54.8291L35.7197 54.9541L35.8945 55.0654L35.8965 55.0664L35.9902 55.1328L36.0615 55.1699L36.1328 55.1328L36.2266 55.0664L36.2285 55.0654L36.4033 54.9541L36.5557 54.8291L36.5596 54.8262L36.7354 54.71L36.7383 54.708L36.96 54.585L37.1367 54.4707L37.3418 54.334L37.5293 54.1699L37.5342 54.167L37.6934 54.0586C37.6973 54.0558 37.7011 54.0517 37.7041 54.0479C37.7201 54.0271 37.7174 53.9973 37.6982 53.9795L37.6367 53.9219C37.6318 53.9174 37.6257 53.913 37.6201 53.9092L37.46 53.7998H37.459L37.2646 53.6582L37.1396 53.5869L37.1387 53.5879L37.1348 53.585L36.9561 53.4551L36.6904 53.2764L36.6885 53.2754L36.4307 53.084C36.4122 53.0702 36.3924 53.0576 36.3721 53.0469L36.2305 52.9727C36.2018 52.9576 36.1749 52.9388 36.1494 52.9189L36.0615 52.8506L35.9736 52.9189ZM31.0859 52.7393C31.0573 52.7394 31.029 52.7473 31.0049 52.7627C30.9601 52.7916 30.9336 52.8423 30.9355 52.8955L31.0029 54.71C31.0035 54.7208 31.0068 54.7321 31.0127 54.7412C31.0303 54.7684 31.0672 54.7771 31.0957 54.7617L32.4785 54.0039C32.5105 53.9864 32.531 53.9524 32.5312 53.916C32.5312 53.8872 32.5187 53.8589 32.4971 53.8398L31.3301 52.8145C31.275 52.766 31.2042 52.7393 31.1309 52.7393H31.0859ZM40.9922 52.7393C40.919 52.7394 40.848 52.7661 40.793 52.8145L39.626 53.8398C39.6045 53.8589 39.5918 53.8873 39.5918 53.916C39.5921 53.9524 39.6126 53.9864 39.6445 54.0039L41.0273 54.7617C41.0558 54.7772 41.0926 54.7683 41.1104 54.7412C41.1162 54.7321 41.1196 54.7208 41.1201 54.71L41.1875 52.8955C41.1895 52.8422 41.163 52.7915 41.1182 52.7627C41.0941 52.7473 41.0657 52.7394 41.0371 52.7393H40.9922ZM34.2314 51.1064C34.1984 51.1065 34.1654 51.1154 34.1367 51.1318L32.6963 51.958C32.4262 52.1131 32.3906 52.4896 32.6279 52.6914L33.3682 53.3203C33.3886 53.3376 33.4118 53.352 33.4365 53.3623C33.5159 53.3951 33.607 53.3861 33.6787 53.3389L35.3955 52.2031C35.4493 52.1676 35.4637 52.0945 35.4277 52.041C35.4216 52.0319 35.4138 52.0236 35.4053 52.0166L34.3525 51.1504C34.3185 51.1224 34.2755 51.1064 34.2314 51.1064ZM37.8916 51.1064C37.8477 51.1065 37.8044 51.1225 37.7705 51.1504L36.7178 52.0166C36.7094 52.0235 36.7014 52.0321 36.6953 52.041C36.6596 52.0945 36.6738 52.1676 36.7275 52.2031L38.4443 53.3389C38.516 53.3861 38.6072 53.395 38.6865 53.3623C38.711 53.3521 38.7346 53.3374 38.7549 53.3203L39.4951 52.6914C39.7324 52.4895 39.697 52.113 39.4268 51.958L37.9863 51.1318C37.9577 51.1154 37.9246 51.1065 37.8916 51.1064ZM32.6953 49.5059C32.5486 49.363 32.3237 49.3375 32.1484 49.4434L30.6533 50.3467C30.5719 50.3961 30.5215 50.4848 30.5215 50.5801C30.5217 50.6492 30.5484 50.7162 30.5957 50.7666L31.2812 51.4971C31.3228 51.5412 31.3817 51.5663 31.4424 51.5664C31.4789 51.5663 31.5157 51.5565 31.5479 51.5391L33.4395 50.5078C33.4883 50.4809 33.5184 50.4288 33.5186 50.373C33.5184 50.3319 33.5021 50.2924 33.4727 50.2637L32.6953 49.5059ZM39.9746 49.4434C39.7994 49.3375 39.5744 49.3631 39.4277 49.5059L38.6504 50.2637C38.6211 50.2924 38.6046 50.332 38.6045 50.373C38.6047 50.4288 38.6347 50.4809 38.6836 50.5078L40.5752 51.5391C40.6073 51.5565 40.6441 51.5663 40.6807 51.5664C40.7412 51.5663 40.8002 51.5411 40.8418 51.4971L41.5273 50.7666C41.5746 50.7162 41.6014 50.6491 41.6016 50.5801C41.6016 50.4847 41.5513 50.3961 41.4697 50.3467L39.9746 49.4434ZM35.5537 50.1924C35.351 50.3769 35.3585 50.6988 35.5703 50.873L36.0615 51.2764L36.5527 50.873C36.7644 50.6987 36.7722 50.3769 36.5693 50.1924L36.0615 49.7305L35.5537 50.1924ZM34.7754 47.9121C34.6088 47.7203 34.3164 47.7045 34.1299 47.877L33.5928 48.373C33.4086 48.5438 33.3997 48.8331 33.5732 49.0146L34.0996 49.5645C34.1604 49.6279 34.2395 49.6728 34.3252 49.6924L34.3682 49.7021C34.4376 49.718 34.5101 49.7167 34.5791 49.6992L34.627 49.6875C34.6928 49.6707 34.7547 49.6386 34.8066 49.5947L35.4346 49.0635C35.4914 49.0154 35.5242 48.9445 35.5244 48.8701C35.5244 48.8093 35.5026 48.7501 35.4629 48.7041L34.7754 47.9121ZM37.9932 47.877C37.8067 47.7046 37.5142 47.7204 37.3477 47.9121L36.6602 48.7041C36.6205 48.7501 36.5986 48.8094 36.5986 48.8701C36.5988 48.9445 36.6317 49.0154 36.6885 49.0635L37.3164 49.5947C37.3684 49.6386 37.4302 49.6707 37.4961 49.6875L37.5439 49.6992C37.6129 49.7167 37.6856 49.7179 37.7549 49.7021L37.7979 49.6924C37.8834 49.6728 37.9627 49.6278 38.0234 49.5645L38.5498 49.0146C38.7232 48.833 38.7145 48.5438 38.5303 48.373L37.9932 47.877ZM31.1475 47.6133C30.9836 47.394 30.6637 47.3703 30.4697 47.5635L29.9766 48.0547C29.8554 48.1758 29.8132 48.3553 29.8682 48.5176L30.1543 49.3643C30.1632 49.3902 30.1803 49.4131 30.2021 49.4297C30.2479 49.4644 30.3107 49.4669 30.3594 49.4365L31.4102 48.7764C31.6326 48.6365 31.6884 48.3365 31.5312 48.126L31.1475 47.6133ZM41.6533 47.5635C41.4594 47.3704 41.1395 47.3941 40.9756 47.6133L40.5918 48.126C40.4349 48.3365 40.4905 48.6366 40.7129 48.7764L41.7637 49.4365C41.8123 49.4669 41.8751 49.4642 41.9209 49.4297C41.9426 49.4131 41.9599 49.3901 41.9688 49.3643L42.2549 48.5176C42.3098 48.3553 42.2677 48.1757 42.1465 48.0547L41.6533 47.5635ZM35.2471 46.4824C35.1544 46.6466 35.1738 46.8524 35.2959 46.9961L36.0615 47.8965L36.8271 46.9961C36.9492 46.8524 36.9687 46.6466 36.876 46.4824L36.0615 45.042L35.2471 46.4824ZM32.8945 44.751C32.7744 44.5183 32.4401 44.524 32.3281 44.7607L32.2832 44.7393L32.3271 44.7617L31.8809 45.6465V45.6484L31.5977 46.166C31.5192 46.31 31.525 46.4858 31.6133 46.624L31.7969 46.9111L32.1484 47.3711L32.5283 47.8447H32.5293C32.5734 47.8944 32.6483 47.9021 32.7021 47.8633L33.0127 47.6377L33.4004 47.2793L33.6865 46.9727L33.7236 47.0068L33.6885 46.9707C33.8239 46.8388 33.8621 46.636 33.7842 46.4639L33.749 46.3867H33.748L33.334 45.7002L33.3311 45.6963L33.332 45.6953L32.9004 44.7617L32.8945 44.751ZM39.7949 44.7607C39.6829 44.5241 39.3487 44.5184 39.2285 44.751L39.2227 44.7617L38.791 45.6953L38.792 45.6963L38.7891 45.7002L38.375 46.3867H38.374L38.3389 46.4639C38.261 46.636 38.2992 46.8389 38.4346 46.9707L38.3994 47.0068L38.4365 46.9727L38.7227 47.2793L39.1104 47.6377L39.4209 47.8633C39.4747 47.9022 39.5496 47.8942 39.5938 47.8447H39.5947L39.9746 47.3711L40.3262 46.9111L40.5098 46.624C40.598 46.4858 40.6039 46.31 40.5254 46.166L40.2422 45.6484V45.6465L39.7959 44.7617L39.8398 44.7393L39.7949 44.7607ZM29.1426 44.4023C29.066 44.2689 28.8768 44.2582 28.7852 44.3818L28.4014 44.9717C28.3115 45.1101 28.304 45.2876 28.3828 45.4326L29.2705 47.0645L29.29 47.0928C29.34 47.1626 29.4325 47.1891 29.5117 47.1562C29.532 47.1477 29.5513 47.1352 29.5674 47.1201L30.1221 46.5957C30.162 46.5579 30.1904 46.5086 30.2031 46.4551C30.2162 46.3994 30.2122 46.3404 30.1914 46.2871L30.1318 46.1367C30.1238 46.1164 30.1144 46.0961 30.1035 46.0771L29.1426 44.4023ZM43.3379 44.3818C43.2463 44.2582 43.0571 44.269 42.9805 44.4023L42.0195 46.0771C42.0087 46.096 41.9992 46.1165 41.9912 46.1367L41.9316 46.2871C41.9109 46.3404 41.9068 46.3994 41.9199 46.4551C41.9327 46.5086 41.961 46.5579 42.001 46.5957L42.5557 47.1201C42.5717 47.1353 42.591 47.1477 42.6113 47.1562C42.6905 47.1892 42.783 47.1625 42.833 47.0928L42.8525 47.0645L43.7402 45.4326C43.819 45.2876 43.8116 45.1101 43.7217 44.9717L43.3379 44.3818ZM111.271 29.1279C112.295 29.1279 113.224 29.2349 114.056 29.4482C114.909 29.6402 115.581 29.9494 116.071 30.376C116.562 30.7813 116.808 31.2934 116.808 31.9121C116.808 32.3387 116.722 32.7123 116.552 33.0322C116.381 33.3521 116.157 33.6187 115.88 33.832C115.645 33.6827 115.282 33.5222 114.791 33.3516C114.322 33.181 113.799 33.0422 113.224 32.9355C112.669 32.8289 112.146 32.7764 111.655 32.7764C110.887 32.7764 110.29 32.8824 109.863 33.0957C109.437 33.2877 109.224 33.5978 109.224 34.0244C109.224 34.3015 109.341 34.5466 109.575 34.7598C109.831 34.9518 110.269 35.1122 110.888 35.2402L112.168 35.5596C114.066 35.9862 115.432 36.6054 116.264 37.416C117.096 38.2052 117.512 39.2398 117.512 40.5195C117.512 42.0768 116.925 43.3042 115.752 44.2002C114.579 45.0748 112.872 45.5117 110.632 45.5117C108.883 45.5117 107.442 45.2561 106.312 44.7441C105.181 44.2321 104.615 43.4743 104.615 42.4717C104.615 42.024 104.711 41.6402 104.903 41.3203C105.095 40.979 105.341 40.7115 105.64 40.5195C106.237 40.8609 106.93 41.1818 107.72 41.4805C108.53 41.7577 109.448 41.8965 110.472 41.8965C112.029 41.8965 112.808 41.4477 112.808 40.5518C112.808 40.168 112.669 39.8695 112.392 39.6562C112.114 39.4216 111.656 39.2502 111.016 39.1436L109.672 38.8242C107.965 38.4616 106.684 37.9068 105.831 37.1602C104.999 36.3923 104.584 35.3468 104.584 34.0244C104.584 32.5311 105.181 31.3463 106.376 30.4717C107.592 29.5759 109.224 29.1279 111.271 29.1279ZM7.03223 23.8799C7.9494 23.8799 8.61032 24.0404 9.01562 24.3604C9.44229 24.6804 9.65625 25.2668 9.65625 26.1201V29.8926C9.94173 29.7719 10.2507 29.655 10.584 29.5439C11.3093 29.2879 12.1097 29.1602 12.9844 29.1602C14.3708 29.1602 15.6293 29.4694 16.7598 30.0879C17.8904 30.6852 18.7869 31.5917 19.4482 32.8076C20.1096 34.0023 20.4404 35.4853 20.4404 37.2559C20.4404 39.0477 20.0877 40.5516 19.3838 41.7676C18.7011 42.9836 17.7303 43.9118 16.4717 44.5518C15.213 45.1704 13.7409 45.4805 12.0557 45.4805C10.7331 45.4804 9.59175 45.32 8.63184 45C7.69323 44.68 6.90364 44.3065 6.26367 43.8799C5.81591 43.56 5.47485 43.208 5.24023 42.8242C5.02697 42.4403 4.91999 41.9923 4.91992 41.4805V24.168C5.11192 24.104 5.40018 24.0396 5.78418 23.9756C6.16811 23.9116 6.58432 23.8799 7.03223 23.8799ZM59.5146 29.1602C60.9866 29.1602 62.1387 29.4266 62.9707 29.96C63.824 30.4933 64.251 31.155 64.251 31.9443C64.2509 32.3281 64.1548 32.6801 63.9629 33C63.7922 33.2986 63.5891 33.5652 63.3545 33.7998C62.9492 33.5865 62.4796 33.3943 61.9463 33.2236C61.4344 33.0317 60.8477 32.9356 60.1865 32.9355C59.0347 32.9355 58.0429 33.3201 57.2109 34.0879C56.4003 34.8345 55.9942 35.9332 55.9941 37.3838C55.9941 38.8131 56.3894 39.8909 57.1787 40.6162C57.968 41.3414 58.9598 41.7041 60.1543 41.7041C60.8583 41.7041 61.4665 41.6189 61.9785 41.4482C62.5118 41.2562 62.9705 41.0532 63.3545 40.8398C63.7172 41.0958 63.9945 41.3841 64.1865 41.7041C64.3785 42.0028 64.4746 42.3763 64.4746 42.8242C64.4745 43.6135 64.0476 44.2535 63.1943 44.7441C62.341 45.2347 61.1571 45.4805 59.6426 45.4805C57.9572 45.4805 56.4743 45.1813 55.1943 44.584C53.9144 43.9653 52.9227 43.0479 52.2188 41.832C51.5148 40.616 51.1621 39.1331 51.1621 37.3838C51.1621 35.5279 51.5465 34.0022 52.3145 32.8076C53.0824 31.5917 54.0959 30.6852 55.3545 30.0879C56.6345 29.4692 58.0213 29.1602 59.5146 29.1602ZM86.709 29.1602C88.1808 29.1602 89.4609 29.4585 90.5488 30.0557C91.6582 30.6317 92.5229 31.4212 93.1416 32.4238C93.7603 33.4265 94.0693 34.5895 94.0693 35.9121C94.0693 36.5733 93.888 37.0747 93.5254 37.416C93.1628 37.7573 92.6614 37.9703 92.0215 38.0557L83.6299 39.2949C83.8824 40.1284 84.3326 40.7504 84.9814 41.1602C85.7921 41.6507 86.7521 41.8965 87.8613 41.8965C88.7573 41.8965 89.6003 41.7677 90.3896 41.5117C91.1788 41.2558 91.819 40.9892 92.3096 40.7119C92.6294 40.9039 92.8852 41.1706 93.0771 41.5117C93.2904 41.8529 93.3974 42.2158 93.3975 42.5996C93.3975 43.2396 93.1409 43.7735 92.6289 44.2002C92.1383 44.6267 91.4446 44.9469 90.5488 45.1602C89.6743 45.3734 88.6715 45.4805 87.541 45.4805C85.8984 45.4804 84.4154 45.1704 83.0928 44.5518C81.7917 43.9331 80.7681 43.0048 80.0215 41.7676C79.2749 40.5303 78.9014 38.9838 78.9014 37.1279C78.9014 35.7627 79.1144 34.5788 79.541 33.5762C79.9889 32.5737 80.5756 31.7523 81.3008 31.1123C82.0474 30.451 82.8796 29.9597 83.7969 29.6396C84.7355 29.3197 85.7064 29.1602 86.709 29.1602ZM96.8848 25.5439C97.8021 25.5439 98.4638 25.7044 98.8691 26.0244C99.2743 26.3445 99.4766 26.931 99.4766 27.7842V29.9922H103.925C104.031 30.1628 104.139 30.4078 104.245 30.7275C104.352 31.0475 104.405 31.4002 104.405 31.7842C104.405 32.4241 104.256 32.8937 103.957 33.1924C103.68 33.4909 103.295 33.6396 102.805 33.6396H99.4766V39.9756C99.4766 40.5728 99.6688 41.0107 100.053 41.2881C100.437 41.5654 100.981 41.704 101.685 41.7041C102.005 41.7041 102.346 41.6724 102.709 41.6084C103.093 41.5231 103.413 41.427 103.669 41.3203C103.84 41.5123 103.989 41.7472 104.117 42.0244C104.266 42.3017 104.341 42.6219 104.341 42.9844C104.341 43.7095 104.043 44.3071 103.445 44.7764C102.848 45.2457 101.845 45.4805 100.437 45.4805C98.6448 45.4804 97.2477 45.0743 96.2451 44.2637C95.2638 43.453 94.7734 42.1305 94.7734 40.2959V25.8643C94.9867 25.8003 95.2852 25.7358 95.6689 25.6719C96.0529 25.5866 96.4582 25.544 96.8848 25.5439ZM33.6836 42.6211C33.3965 42.6212 33.1819 42.8865 33.2432 43.167L33.2725 43.2998C33.2786 43.3278 33.2875 43.3555 33.2988 43.3818L33.7676 44.4648L34.1338 45.1592C34.2976 45.469 34.7376 45.4812 34.918 45.1807L35.3193 44.5098C35.336 44.482 35.3491 44.4516 35.3594 44.4209L35.7041 43.3887C35.7133 43.361 35.7199 43.3317 35.7236 43.3027L35.7451 43.127C35.779 42.8582 35.5697 42.6211 35.2988 42.6211H33.6836ZM36.8242 42.6211C36.5535 42.6212 36.3441 42.8583 36.3779 43.127L36.3994 43.3027C36.4031 43.3317 36.4097 43.3609 36.4189 43.3887L36.7637 44.4209C36.774 44.4516 36.7871 44.482 36.8037 44.5098L37.2051 45.1807C37.3853 45.4812 37.8254 45.4689 37.9893 45.1592L38.3555 44.4648L38.8242 43.3818C38.8355 43.3556 38.8444 43.3277 38.8506 43.2998L38.8799 43.167C38.9411 42.8865 38.7265 42.6212 38.4395 42.6211H36.8242ZM67.3975 23.8799C68.3146 23.8799 68.9756 24.0404 69.3809 24.3604C69.8075 24.6804 70.0215 25.2668 70.0215 26.1201V35.29L75.877 29.3838C76.8367 29.4051 77.6047 29.6292 78.1807 30.0557C78.778 30.4823 79.0771 31.0163 79.0771 31.6562C79.0771 32.2108 78.8849 32.7122 78.501 33.1602C78.117 33.5868 77.5305 34.1416 76.7412 34.8242L74.0859 37.1152L79.6846 42.5361C79.5992 43.3893 79.3436 44.0611 78.917 44.5518C78.4903 45.0211 77.8821 45.2559 77.0928 45.2559C76.5169 45.2558 75.9837 45.1171 75.4932 44.8398C75.0239 44.5412 74.5225 44.0615 73.9893 43.4004L70.0215 38.7422V44.9678C69.8082 45.0318 69.509 45.0853 69.125 45.1279C68.741 45.1919 68.325 45.2236 67.877 45.2236C66.981 45.2236 66.3192 45.0641 65.8926 44.7441C65.4874 44.4241 65.2852 43.8475 65.2852 43.0156V24.168C65.4772 24.104 65.7655 24.0396 66.1494 23.9756C66.5333 23.9116 66.9496 23.8799 67.3975 23.8799ZM30.04 42.6211C29.7235 42.6213 29.5061 42.9394 29.6211 43.2344L29.6611 43.3379L30.2725 44.4629L30.4678 44.7998C30.6426 45.1011 31.0795 45.0977 31.25 44.7939L31.4336 44.4648L31.877 43.3438L31.918 43.1787C31.9878 42.8951 31.7726 42.6211 31.4805 42.6211H30.04ZM40.6426 42.6211C40.3506 42.6212 40.1352 42.8952 40.2051 43.1787L40.2461 43.3438L40.6895 44.4648L40.873 44.7939C41.0435 45.0977 41.4803 45.1009 41.6553 44.7998L41.8506 44.4629L42.4619 43.3379L42.502 43.2344C42.6169 42.9394 42.3995 42.6213 42.083 42.6211H40.6426ZM27.2773 42.6211C26.9151 42.6215 26.7027 43.0281 26.9082 43.3252L27.6553 44.21C27.6925 44.2537 27.7565 44.2641 27.8057 44.2344C27.8258 44.222 27.8419 44.2032 27.8516 44.1816L28.1992 43.3926C28.2136 43.36 28.2242 43.3251 28.2305 43.29L28.2559 43.1504C28.3049 42.8747 28.0925 42.6212 27.8125 42.6211H27.2773ZM44.3105 42.6211C44.0306 42.6213 43.8181 42.8748 43.8672 43.1504L43.8926 43.29C43.8989 43.3251 43.9095 43.36 43.9238 43.3926L44.2715 44.1816C44.2811 44.2032 44.2972 44.222 44.3174 44.2344C44.3664 44.2642 44.4305 44.2536 44.4678 44.21L45.2148 43.3252C45.4202 43.0281 45.2079 42.6215 44.8457 42.6211H44.3105ZM12.1201 32.9043C11.4375 32.9043 10.8292 33.0321 10.2959 33.2881C10.0566 33.4029 9.83323 33.5256 9.62402 33.6533V41.1279C9.88002 41.2773 10.2109 41.4159 10.6162 41.5439C11.0215 41.6719 11.4803 41.7363 11.9922 41.7363C13.08 41.7363 13.944 41.3627 14.584 40.6162C15.2453 39.8695 15.5762 38.7492 15.5762 37.2559C15.5762 35.7413 15.2561 34.6426 14.6162 33.96C13.9976 33.256 13.1654 32.9043 12.1201 32.9043ZM36.6064 0.789062L36.6123 0.793945L37.0762 1.28125L37.082 1.28613L37.041 1.31445L37.082 1.28711L37.3789 1.7168L37.7441 2.20312L37.75 2.21094H37.749L38.125 2.97363L38.127 2.97949L38.3262 3.54395L38.3301 3.55371H38.3281L38.417 4.22852L38.418 4.23828L38.3672 4.23438L38.417 4.23828L38.3828 4.77734L38.3818 4.7832L38.2764 5.36133L38.2744 5.37305L38.2725 5.37207L37.7803 6.48535L37.7783 6.49121L37.7354 6.46582L37.7773 6.49121C37.7064 6.60907 37.599 6.78733 37.5088 6.93652C37.4639 7.01079 37.4228 7.07923 37.3926 7.12891C37.3776 7.15348 37.3644 7.1749 37.3555 7.18945C37.3478 7.20194 37.3398 7.21392 37.3369 7.21777C37.3355 7.22036 37.3307 7.22867 37.3223 7.24219C37.312 7.25855 37.2975 7.28282 37.2803 7.31055C37.2453 7.3669 37.1967 7.44392 37.1445 7.52832C37.0396 7.69799 36.9146 7.90032 36.832 8.03418L36.5322 8.63672L36.3896 9.21094L36.3438 9.75781L36.4199 10.1943L36.582 10.5645L36.6982 10.7285L36.9814 10.9014L37.1387 10.9229L37.3701 10.9004L37.5479 10.8203L37.751 10.6855L37.9434 10.4814L38.1211 10.1816L38.3154 9.72168L38.3682 9.3291V8.91113L38.3379 8.63086L38.2607 8.23242L38.1836 7.94922L38.0742 7.63672L37.9727 7.34961L38.0635 7.30762L38.3213 7.75684L38.3223 7.75879L38.5098 8.12598L38.5107 8.12793L38.7021 8.54199L38.7031 8.54395C38.7337 8.61757 38.78 8.72978 38.8193 8.82617C38.8389 8.87419 38.8576 8.91908 38.8711 8.95312C38.8777 8.96978 38.8835 8.98501 38.8877 8.99609C38.8913 9.00575 38.8949 9.01702 38.8965 9.02344L39.0283 9.46289L39.0303 9.46582V9.4668L39.1357 9.94727L39.1367 9.9541L39.1719 10.4268V10.4316L39.1562 10.9512L39.1553 10.957L39.0654 11.5352L39.0635 11.5459L39.0615 11.5449L38.8945 11.9941L38.8936 11.9971L38.5537 12.7549L38.5508 12.7617L38.2539 13.2344L38.2529 13.2354L38.0117 13.6016L37.7305 14.043L37.416 14.7139L37.3037 15.0947L37.2695 15.5283V15.9463L37.291 16.2393C37.2982 16.3363 37.3047 16.4228 37.3047 16.4346L37.3066 16.4434C37.309 16.4534 37.3132 16.4677 37.3174 16.4844C37.326 16.5188 37.3373 16.5661 37.3506 16.6162L37.4316 16.9131V16.9141L37.5283 17.2881L37.6885 17.7256H37.6875L37.8672 18.1846L38.0391 18.6064H38.0381L38.1904 18.9521L38.2725 19.1299L38.1797 18.832L38.1777 18.8281V18.8271L38.0732 18.3594L38.0713 18.3506L38.0479 17.9131V17.9053L38.0986 17.9111L38.0488 17.9053L38.0996 17.46V17.4531H38.1006L38.21 17L38.2119 16.9902H38.2129L38.584 16.2061L38.5869 16.1992L38.6299 16.2275L38.5879 16.1992L38.8535 15.8008L38.8564 15.7969L39.1104 15.4922L39.4072 15.125L39.4092 15.1221L39.9951 14.501L40.3506 14.1221L40.7832 13.6318L41.0801 13.2568L41.1953 13.0576L41.543 12.3076L41.6904 11.7881L41.7354 11.4033V10.9502L41.6699 10.4404L41.5049 9.92578L41.3643 9.58203V9.58105L41.1602 9.21582H41.1592L40.9297 8.90918L41.0029 8.8418L41.3896 9.18945L41.3926 9.19238L41.7129 9.52832L41.7158 9.53223L42.0479 9.96191L42.0508 9.96582L42.4258 10.5635L42.4297 10.5693L42.4287 10.5703L42.6553 11.0742L42.6572 11.0771L42.833 11.5654L42.8359 11.5742H42.835L42.9209 12.082L42.9219 12.0879L42.9453 12.5215V12.5264L42.9219 12.9521L42.9209 12.957L42.8545 13.4219L42.8535 13.4316L42.8057 13.415L42.8525 13.4316L42.6455 14.0137L42.6436 14.0176L42.2529 14.877L42.251 14.8818L42.208 14.8564L42.25 14.8818L41.9648 15.3506L41.9639 15.3525L41.6592 15.8135L41.3936 16.2559L41.0977 16.8809L40.9492 17.4834V17.9619L40.9512 17.9717C40.9529 17.9806 40.9557 17.9936 40.959 18.0078C40.9657 18.0372 40.9749 18.0766 40.9854 18.1182C41.0057 18.1993 41.0301 18.2931 41.0469 18.3564L41.2246 18.6523L41.4639 18.8086L41.7705 18.8975L42.0908 18.8086L42.334 18.6494L42.5859 18.3916L42.6602 18.3057L42.8848 17.8418L42.9893 17.5205V17.0557L42.9502 16.6104V16.6094L42.9004 16.2959L42.7666 15.9229L42.6338 15.6104L42.7207 15.5615L43.041 16.0186L43.0439 16.0225L43.1963 16.292L43.1982 16.2959L43.3975 16.7334L43.3984 16.7363L43.6016 17.2559L43.6035 17.2607L43.7676 17.8506L43.7686 17.8564L43.8467 18.3682L43.8477 18.376V18.8633L43.7979 18.8564L43.8467 18.8633C43.8337 18.9536 43.814 19.0909 43.7979 19.208C43.7898 19.2663 43.7826 19.321 43.7773 19.3613C43.7748 19.3811 43.7729 19.3989 43.7715 19.4111C43.77 19.424 43.7696 19.4306 43.7695 19.4307C43.7693 19.4379 43.7674 19.4458 43.7666 19.4492C43.7654 19.4541 43.7634 19.4609 43.7617 19.4668C43.7581 19.4793 43.753 19.4964 43.7471 19.5146C43.7348 19.5522 43.7178 19.6025 43.6992 19.6553C43.6618 19.7616 43.6168 19.8856 43.5869 19.9668L43.585 19.9707L43.2725 20.6582L43.2705 20.6631H43.2695L42.9727 21.1514L42.9717 21.1533L42.6279 21.6611L42.627 21.6631L42.2754 22.1475L42.1328 22.3779L41.9219 22.7588L41.8027 23.0957L41.75 23.4658V23.8789C41.7502 23.8817 41.7505 23.8863 41.751 23.8906C41.7519 23.9002 41.7531 23.9138 41.7549 23.9287C41.7585 23.9597 41.7639 24.0012 41.7695 24.0449C41.7805 24.1303 41.7937 24.2292 41.8027 24.2959L41.8994 24.6436L41.9922 24.9023L42.1875 25.2207L42.1895 25.2236L42.4668 25.7549L42.4678 25.7578L42.7412 26.3672L42.7432 26.3701L42.9932 27.0654L42.9941 27.0693L43.0996 27.4482V27.4502L43.2949 28.3096L43.2959 28.3145C43.3096 28.4193 43.3306 28.5783 43.3477 28.7119C43.3561 28.7784 43.3636 28.8398 43.3691 28.8848C43.3719 28.9068 43.3744 28.926 43.376 28.9395C43.3773 28.9506 43.3789 28.9642 43.3789 28.9697C43.3789 28.9711 43.3788 28.9742 43.3789 28.9775C43.3791 28.9833 43.3795 28.9923 43.3799 29.002C43.3807 29.0223 43.3814 29.0516 43.3828 29.0859C43.3857 29.1558 43.3901 29.2518 43.3945 29.3564C43.4035 29.5665 43.4147 29.8167 43.4219 29.9824V29.9883L43.3828 30.6133L43.3818 30.6152L43.3154 31.2559V31.2607L43.1748 31.9443L43.1738 31.9453C43.1354 32.1067 43.0782 32.3505 43.0303 32.5547C43.0064 32.6566 42.9843 32.7506 42.9688 32.8184C42.9611 32.8517 42.9544 32.8801 42.9502 32.8994C42.9482 32.9086 42.9463 32.9168 42.9453 32.9219C42.9449 32.9241 42.9445 32.9268 42.9443 32.9277L42.9434 32.9346C42.9431 32.9369 42.9429 32.9409 42.9424 32.9434C42.941 32.949 42.9387 32.9573 42.9365 32.9658C42.9319 32.9842 42.925 33.0108 42.917 33.041C42.9006 33.1028 42.8776 33.1874 42.8525 33.2793C42.8021 33.4643 42.7415 33.6845 42.7012 33.8301L42.7002 33.833L42.3916 34.7275L42.3906 34.7305L42.0898 35.457L42.0889 35.46L42.0439 35.4385L42.0879 35.46L41.7441 36.1592L41.7402 36.168L41.7002 36.1377L41.7393 36.168L41.3369 36.6914L41.332 36.6973L41.2979 36.6611L41.3311 36.6973L40.7373 37.252L40.7344 37.2549L40.0469 37.7783L40.0439 37.7803L39.3721 38.2373L39.3652 38.2422V38.2412L38.3652 38.7061L38.3594 38.709V38.708L37.7422 38.9072L37.7354 38.9102L37.7275 38.8604L37.7344 38.9092L36.8711 39.0439L36.8643 39.0459V39.0449H35.627L35.1113 38.9863L35.1035 38.9854V38.9834L34.3584 38.7812L34.3525 38.7803L33.6807 38.5146L33.6758 38.5117L33.0586 38.1875L33.0527 38.1846L33.082 38.1436L33.0527 38.1836L32.4707 37.7656H32.4697L31.9658 37.3789L31.9648 37.3779L31.4414 36.9521L31.4395 36.9502L30.9395 36.5049L30.9375 36.5029L30.5469 36.1162L30.5449 36.1143L30.1152 35.6299L30.1123 35.627L29.8154 35.2402L29.8135 35.2373L29.5518 34.8311L29.5498 34.8281V34.8271L29.2344 34.2734L29.2314 34.2705L29.2773 34.249L29.2324 34.2695L28.9746 33.7148L28.9727 33.7119L28.7734 33.1768L28.7725 33.1729L28.6123 32.626L28.6113 32.623L28.4707 32.0176L28.4697 32.0146L28.3643 31.3623V31.3584L28.3369 31.0186V31.0176C28.3293 30.9064 28.3139 30.6744 28.3135 30.6475V30.6416C28.3134 30.6384 28.3127 30.6332 28.3125 30.6279C28.3121 30.6166 28.3113 30.5996 28.3105 30.5811C28.309 30.5434 28.3071 30.4924 28.3047 30.4375C28.2998 30.327 28.2939 30.1963 28.29 30.1104V30.1064L28.3135 29.4033L28.3486 28.6104V28.6084L28.3994 27.9561V27.9551L28.4658 27.2793C28.4813 27.0153 28.5111 26.4899 28.5117 26.4482C28.5117 26.4268 28.5122 26.2612 28.5146 26.0967C28.5159 26.0147 28.5177 25.9308 28.5205 25.8662C28.5219 25.8347 28.5234 25.8058 28.5254 25.7842C28.5263 25.7738 28.528 25.763 28.5293 25.7549C28.5303 25.7491 28.5324 25.7366 28.5371 25.7266C28.5364 25.7281 28.5355 25.7304 28.5352 25.7314C28.5356 25.728 28.5358 25.7214 28.5361 25.7139C28.5369 25.6982 28.5371 25.6753 28.5371 25.6484C28.537 25.5942 28.5358 25.5209 28.5332 25.4414C28.5279 25.2819 28.5184 25.0942 28.5117 24.9707V24.3105L28.4727 23.5479V23.542L28.5117 22.8359L28.5127 22.8301L28.6465 22V21.9961C28.6753 21.8727 28.7198 21.6852 28.7588 21.5264C28.7782 21.4473 28.7971 21.3738 28.8115 21.3193C28.8186 21.2928 28.825 21.269 28.8301 21.252C28.8325 21.244 28.8349 21.2354 28.8369 21.2295C28.8382 21.2257 28.8421 21.2162 28.8467 21.209C28.8454 21.2109 28.845 21.2117 28.8457 21.21C28.8468 21.2074 28.8488 21.2023 28.8506 21.1973C28.8545 21.1863 28.8595 21.1698 28.8652 21.1514C28.877 21.1138 28.8924 21.0626 28.9082 21.0078C28.9398 20.8981 28.975 20.7692 28.998 20.6846L29 20.6797L29.5088 19.3496H29.5098L30.0029 18.1143L30.3398 17.21L30.4961 16.6982C30.5436 16.518 30.6442 16.1425 30.665 16.0752C30.6844 16.0132 30.7571 15.7204 30.792 15.5791L30.8809 15.1123L30.9688 14.5889L30.999 14.0195V13.6914L30.9697 13.3076L30.8809 12.8975V12.8965L30.7598 12.4307L30.6416 12.1348V12.1338L30.5469 11.8965L30.6328 11.8477L30.7861 12.04L31.0576 12.3809L31.0605 12.3848L31.2783 12.7061L31.2803 12.709H31.2793L31.458 13.0156L31.459 13.0186L31.6426 13.3887V13.3906L31.791 13.7168L31.792 13.7188L31.9307 14.0586L31.9326 14.0635L32.0312 14.4268V14.4287L32.1211 14.8135L32.1221 14.8184H32.1211L32.1758 15.2188L32.1768 15.2227H32.1758L32.2012 15.6279V16.0146L32.1758 16.3887V16.3926L32.1211 16.7988V16.8008L32.0322 17.3447L32.0312 17.3496L31.873 17.9424L31.7598 18.3721L31.7578 18.3789H31.7568L31.6289 18.6807L31.5361 18.9629L31.5352 18.9658L31.4268 19.251L31.2783 19.6328L31.1348 20.0234L30.959 20.5059L30.8848 20.8467L30.8154 21.1729L30.8164 21.1738L30.7666 21.5498L30.7275 21.8564V22.0801L30.7676 22.5078H30.7666L30.8164 22.8291L30.8838 23.2051L30.9531 23.4521L31.0205 23.6797L31.1133 23.8984L31.2617 24.2002L31.3887 24.4443L31.5068 24.6494L31.6484 24.8154L31.877 25.0098L32.1533 25.209L32.3613 25.2607C32.3746 25.2264 32.3918 25.1849 32.4053 25.1475C32.4147 25.1211 32.4227 25.0955 32.4287 25.0762C32.4315 25.067 32.4341 25.0585 32.4355 25.0527C32.4373 25.0455 32.4375 25.0449 32.4375 25.0479C32.4375 25.0341 32.4416 25.0154 32.4453 25.001C32.4496 24.9845 32.4557 24.9639 32.4619 24.9443C32.4733 24.9083 32.4862 24.8684 32.4961 24.8408V24.3262C32.4862 24.2587 32.4719 24.158 32.46 24.0693C32.4539 24.0239 32.4484 23.9803 32.4443 23.9463C32.4406 23.9143 32.4376 23.885 32.4375 23.8711V22.8838H32.4385L32.498 22.667L32.5625 22.4346L32.5645 22.4268H32.5654L32.6992 22.1396V22.1387L32.8574 21.8271L32.8604 21.8213L32.9014 21.8486L32.8613 21.8213L33.0537 21.54L33.0557 21.5371L33.2295 21.3086L33.4346 20.8457L33.4775 20.7002V20.4014C33.4774 20.4007 33.4769 20.3992 33.4766 20.3975C33.4759 20.3933 33.475 20.3867 33.4736 20.3799C33.4707 20.3656 33.4657 20.3469 33.4609 20.3271C33.4514 20.287 33.4394 20.2407 33.4316 20.2109V20.208C33.4251 20.1759 33.4149 20.1253 33.4072 20.0791C33.4035 20.0562 33.4007 20.0327 33.3984 20.0137C33.3964 19.9968 33.3943 19.9769 33.3955 19.9629C33.3953 19.9618 33.3942 19.9571 33.3916 19.9482C33.3881 19.9367 33.3825 19.9218 33.376 19.9062C33.3628 19.8748 33.3462 19.8406 33.335 19.8193L33.334 19.8174L33.2314 19.6084L33.0889 19.4326L32.9287 19.2686L32.9873 19.1885L33.2725 19.3311L33.5303 19.4912L33.5342 19.4941H33.5332L33.8184 19.7051L33.8242 19.709L34.0117 19.8926L34.0127 19.8936L34.1885 20.0732L34.1924 20.0771H34.1914L34.3281 20.2529L34.457 20.4131L34.4629 20.4199H34.4619L34.5283 20.541L34.6338 20.7285L34.6357 20.7324L34.7451 20.9785L34.75 20.9912H34.749L34.7803 21.1865C34.7868 21.227 34.7966 21.2888 34.8047 21.3418C34.8087 21.3682 34.8118 21.394 34.8145 21.4131C34.8158 21.4223 34.8176 21.4311 34.8184 21.4375C34.8189 21.4428 34.8193 21.4508 34.8193 21.4561C34.8197 21.458 34.8208 21.4638 34.8223 21.4727C34.824 21.4834 34.8264 21.4982 34.8291 21.5127C34.8347 21.5426 34.8413 21.577 34.8457 21.5986L34.8477 21.6084H34.8467V21.9941L34.8193 22.2041L34.8184 22.2119L34.7695 22.1982L34.8174 22.2119L34.7734 22.3662L34.8135 22.3447L34.9814 22.1982C34.9986 22.1773 35.0248 22.146 35.0459 22.1182C35.0566 22.104 35.0673 22.0902 35.0742 22.0801C35.077 22.0759 35.0796 22.0718 35.0811 22.0693C35.0836 22.0649 35.0815 22.0682 35.0801 22.0752C35.0812 22.0695 35.0838 22.0632 35.085 22.0605C35.0863 22.0575 35.0881 22.0526 35.0898 22.0488C35.0935 22.0412 35.0988 22.0306 35.1045 22.0195C35.1165 21.9962 35.1337 21.9646 35.1514 21.9316C35.1855 21.868 35.225 21.793 35.2529 21.7422L35.3018 21.5342V21.1982L35.2783 20.9404L35.1943 20.6865V20.6855C35.1455 20.5659 35.0468 20.3248 35.0381 20.2998C35.0375 20.2987 35.0365 20.2963 35.0352 20.2939C35.0317 20.288 35.0265 20.2799 35.0205 20.2705C35.0078 20.2504 34.9916 20.2255 34.9736 20.1973C34.9391 20.143 34.8974 20.0755 34.876 20.0264C34.8587 19.9868 34.8181 19.9256 34.7773 19.8672L34.6885 19.7402C34.6885 19.7402 34.6873 19.7386 34.6855 19.7363C34.6837 19.734 34.6807 19.7311 34.6777 19.7275C34.6715 19.72 34.663 19.7101 34.6533 19.6992C34.6337 19.6771 34.6083 19.6496 34.583 19.6221C34.5341 19.5689 34.4806 19.5103 34.4648 19.4902C34.4559 19.4788 34.4199 19.4405 34.376 19.3945C34.334 19.3506 34.2861 19.3024 34.2549 19.2705L33.9854 19.0244L33.9844 19.0234V19.0225L33.7861 18.832L33.7852 18.8311L33.6016 18.6514L33.5996 18.6494C33.5762 18.6234 33.5399 18.5834 33.5088 18.5479C33.4933 18.5302 33.4781 18.5125 33.4668 18.499C33.4572 18.4876 33.4464 18.474 33.4414 18.4658C33.4325 18.4511 33.3673 18.3539 33.334 18.3047L33.333 18.3037L33.2002 18.1006L33.1982 18.0977L33.0498 17.8281L33.0488 17.8252L32.8887 17.4932L32.8848 17.4854V17.4844L32.792 17.166L32.752 17.0303C32.7452 17.0063 32.7383 16.9823 32.7334 16.9629C32.7289 16.9451 32.7249 16.9262 32.7236 16.9141C32.7226 16.9035 32.7147 16.8716 32.7041 16.832C32.6941 16.7948 32.6825 16.7542 32.6748 16.7285L32.6719 16.7188V16.7178L32.6406 16.3916L32.6182 16.2119L32.6172 16.2021L32.668 16.2061L32.6182 16.2021C32.6226 16.1302 32.6289 16.0199 32.6338 15.9248C32.6362 15.8775 32.6384 15.8324 32.6396 15.7988C32.6402 15.7827 32.6405 15.7682 32.6406 15.7578V15.666C32.6419 15.6324 32.6447 15.5898 32.6475 15.5479C32.6503 15.5057 32.6537 15.4616 32.6572 15.4258C32.6606 15.3922 32.6645 15.3594 32.6689 15.3418C32.6764 15.3135 32.6986 15.2517 32.7188 15.1982C32.7394 15.1434 32.7589 15.0938 32.7637 15.0801C32.7638 15.0798 32.7643 15.0782 32.7646 15.0771C32.7651 15.0754 32.7659 15.0721 32.7666 15.0693C32.7682 15.0627 32.7702 15.0531 32.7725 15.043C32.7771 15.0218 32.7829 14.9933 32.7891 14.9639C32.8015 14.9046 32.8162 14.8357 32.8252 14.791L32.8271 14.7793L32.874 14.8008L32.8281 14.7793L32.9805 14.457L32.9814 14.4561L33.123 14.1758L33.126 14.1699L33.2666 13.959L33.2734 13.9492L33.3076 13.9863L33.2744 13.9502L33.4854 13.7549L33.4912 13.75L33.6631 13.6338L33.6699 13.6289L33.6768 13.627L33.7783 13.5957L33.8896 13.5615L33.8379 13.666L33.7373 13.8662L33.6826 14.0488L33.6553 14.2559L33.6543 14.2578L33.625 14.4111L33.6543 14.6436L33.709 14.8662L33.7627 15.0186L33.8779 15.1875L34.0703 15.3076L34.3047 15.3545L34.4512 15.3359L34.5771 15.2754L34.7275 15.1885L34.9785 14.7285L35.0205 14.4336V14.084L34.9238 13.6865V13.6855L34.7939 13.3262L34.5869 12.9668C34.5422 12.8979 34.4463 12.7501 34.4287 12.7188C34.4223 12.7072 34.3883 12.655 34.3457 12.5918C34.304 12.53 34.2558 12.4596 34.2246 12.4141L34.2227 12.4121V12.4111L34.0127 12.0723L34.0107 12.0693L33.7529 11.5967L33.749 11.5908V11.5898L33.582 11.1338L33.5801 11.1289L33.4707 10.7109L33.4688 10.7002V10.6992L33.4424 10.04L33.4414 10.0322L33.4922 10.0381L33.4424 10.0322L33.4932 9.61816L33.4941 9.61133L33.6074 9.17383L33.6094 9.16895L33.8086 8.64551L33.8096 8.64258C33.8331 8.5891 33.8708 8.50501 33.9072 8.42871C33.9253 8.39095 33.944 8.35365 33.96 8.32324C33.9752 8.29414 33.9909 8.26626 34.0029 8.25C34.0237 8.22231 34.0689 8.14378 34.1113 8.06641C34.1319 8.02877 34.1522 7.99113 34.167 7.96289L34.1914 7.91406C34.1936 7.90869 34.1974 7.90236 34.1992 7.89941C34.2014 7.89595 34.205 7.89108 34.208 7.88672C34.2144 7.87734 34.2236 7.8642 34.2334 7.85059C34.2533 7.82288 34.2799 7.7864 34.3057 7.75098C34.3315 7.71548 34.3579 7.67902 34.3779 7.65039C34.3877 7.63646 34.3963 7.62356 34.4023 7.61426C34.4061 7.60852 34.409 7.60434 34.4102 7.60254C34.4136 7.59324 34.4205 7.58326 34.4248 7.57715C34.4298 7.56995 34.4364 7.56056 34.4434 7.55176C34.4578 7.53357 34.4772 7.51032 34.4971 7.4873C34.5372 7.441 34.5844 7.38894 34.6152 7.35547L34.8564 7.06445L34.8584 7.0625L35.2139 6.6875L35.2158 6.68555C35.2617 6.64156 35.332 6.5736 35.3916 6.51465C35.4211 6.48547 35.4484 6.45754 35.4688 6.43652C35.4786 6.42633 35.4873 6.41671 35.4932 6.41016C35.5001 6.40248 35.5012 6.40126 35.5 6.40332C35.5042 6.39607 35.5109 6.38734 35.5156 6.38184C35.5215 6.37512 35.5297 6.36618 35.5381 6.35742C35.5552 6.33953 35.5788 6.31734 35.6025 6.29395C35.6489 6.24823 35.7027 6.19581 35.7393 6.16113L36.0713 5.77539L36.5361 5.16602L36.8506 4.62207L37.0596 4.00879L37.1895 3.45312V2.79102L36.9932 2.06055L36.8516 1.63574L36.4365 0.991211L36.0693 0.493164L36.1406 0.422852L36.6064 0.789062ZM36.4717 38.3799L36.8574 38.3555L37.3896 38.2891L37.8271 38.1748L38.2168 38.0469L38.5938 37.8779L38.9766 37.6709L39.3145 37.4707L39.4912 37.3213L39.6299 37.1934V37.1787L39.4678 37.0029L39.4629 36.998V36.9971L39.2451 36.6895L39.0615 36.4316L39.0596 36.4287L38.8994 36.1631L38.8984 36.1621L38.6602 35.7402L38.6582 35.7373L38.4824 35.3701L38.4814 35.3672L38.333 35.0039L38.332 35.001L38.1953 34.5947L38.1934 34.5898V34.5889L38.1006 34.1719L38.0996 34.1699L38.0098 33.6699V33.6689L37.9736 33.4551H36.4688L36.4717 38.3799ZM34.4053 33.6943L34.3584 33.9951L34.3574 33.998L34.2676 34.3965L34.2666 34.3994L34.1611 34.7666L34.1602 34.7715L34.0156 35.1309L34.0146 35.1318L33.8506 35.5068L33.8496 35.5088L33.6777 35.8682L33.6758 35.8721L33.4141 36.3096L33.4121 36.3125L33.1465 36.6914L33.1445 36.6943L33.1436 36.6934L32.8916 37.0156L32.7949 37.1533L33.0273 37.3389L33.2852 37.502H33.2861L33.6025 37.6816H33.6016L33.918 37.8477L34.2412 37.9863L34.5859 38.0957L34.9258 38.2051H34.9248L35.292 38.2891L35.7617 38.3477L35.7598 33.4551H34.4453L34.4053 33.6943ZM38.6875 33.6338L38.7285 33.8057L38.7295 33.8066L38.7793 34.042L38.8721 34.3828L38.9883 34.7246L39.0918 34.998L39.1787 35.1777L39.3311 35.4902L39.4961 35.7744L39.6514 36.0156L39.877 36.3506L40.0225 36.5576L40.1738 36.7314L40.3516 36.5547C40.3762 36.5236 40.4127 36.4788 40.4434 36.4414C40.459 36.4224 40.474 36.4038 40.4854 36.3906C40.4907 36.3844 40.4967 36.3775 40.501 36.373C40.5029 36.3711 40.5062 36.3684 40.5088 36.3662C40.51 36.3652 40.5129 36.3631 40.5156 36.3613H40.5146C40.5171 36.3587 40.5216 36.354 40.5264 36.3486C40.5371 36.3364 40.5523 36.3182 40.5684 36.2988C40.6005 36.2598 40.6388 36.2123 40.6641 36.1807L40.8613 35.8789L41.0361 35.5986L41.2051 35.2607L41.3496 34.9404L41.4961 34.5078L41.5693 34.2598L41.6348 33.9316L41.6768 33.6377V33.4688H38.6875V33.6338ZM30.8076 33.5518L30.8418 33.8545L30.916 34.1582L30.9502 34.2998C30.9558 34.3239 30.9611 34.3476 30.9648 34.3652C30.9667 34.3738 30.9686 34.3824 30.9697 34.3887C30.9706 34.3936 30.9717 34.4025 30.9717 34.4092C30.9717 34.4072 30.9717 34.4046 30.9717 34.4033C30.9718 34.4047 30.972 34.4077 30.9727 34.4102C30.9743 34.4162 30.9774 34.4253 30.9805 34.4355C30.9869 34.4568 30.9959 34.486 31.0059 34.5166C31.026 34.5782 31.0503 34.6502 31.0664 34.6973L31.1895 35.0439L31.3525 35.3809L31.5381 35.71L31.7275 36.0078L31.9365 36.2871L32.1641 36.5537L32.2812 36.6729L32.3916 36.5566L32.6328 36.2344L32.8359 35.9023L33.0195 35.5947L33.1943 35.2754L33.3447 34.9395L33.4727 34.5947L33.585 34.2607L33.6582 33.9258L33.7119 33.6152L33.7266 33.4551H30.8076V33.5518ZM86.7412 32.6797C85.7812 32.6797 84.9808 33.0106 84.3408 33.6719C83.7611 34.2517 83.4294 35.0597 83.3398 36.0947L89.5889 35.1123C89.5462 34.515 89.2905 33.9602 88.8213 33.4482C88.352 32.9362 87.6585 32.6797 86.7412 32.6797ZM39.9785 29.3799L39.8467 29.5723L39.6904 29.8018L39.5469 30.041L39.4229 30.2529L39.4219 30.252L39.2939 30.4854L39.1865 30.7021L39.0781 30.9727L38.9883 31.1982L38.8877 31.4658L38.8887 31.4668L38.8027 31.7676L38.8037 31.7686L38.7334 32.0928L38.6562 32.5986V32.7705H41.7314V32.5986C41.7191 32.5168 41.7006 32.396 41.6855 32.293C41.6779 32.2404 41.6711 32.1908 41.666 32.1543C41.6636 32.1367 41.6616 32.1207 41.6602 32.1094C41.6591 32.1006 41.6574 32.0895 41.6572 32.083C41.6571 32.0819 41.6567 32.0792 41.6562 32.0762C41.6551 32.0694 41.6527 32.059 41.6504 32.0479C41.6458 32.0251 41.64 31.9944 41.6328 31.9619C41.6185 31.8971 41.6006 31.8215 41.5889 31.7715L41.4678 31.3379V31.3369L41.3418 30.9512L41.1504 30.5371V30.5361L40.9785 30.1846L40.7598 29.8604L40.5488 29.5518H40.5479L40.373 29.3496V29.3486L40.2109 29.1836L40.2051 29.1787L40.2061 29.1777L40.168 29.124L39.9785 29.3799ZM32.0703 29.376L32.0713 29.377L31.9033 29.5957L31.9023 29.5947L31.7412 29.8125L31.7422 29.8135L31.5977 30.0596V30.0605L31.4258 30.3379L31.2598 30.6924L31.1436 30.9717L31.1445 30.9727L31.0312 31.2979L30.9424 31.5918L30.8613 31.9473L30.8623 31.9482L30.8076 32.2803L30.7803 32.6045V32.749H33.7471V32.5527L33.7314 32.374L33.6924 32.1318V32.1309L33.6631 31.9531L33.6006 31.7188L33.5996 31.7168L33.6484 31.7061L33.5996 31.7158L33.5566 31.5156L33.4072 31.1006L33.252 30.7402L33.0762 30.3887V30.3877L32.8984 30.0596L32.751 29.8154L32.6064 29.5928V29.5918L32.46 29.377L32.2812 29.1436L32.0703 29.376ZM35.4912 27.4951L35.4902 27.4941L34.9951 27.5771L34.6143 27.7051L34.6133 27.7041L34.1699 27.8613L34.1709 27.8623L33.8682 27.9912L33.8672 27.9902L33.6084 28.1094L33.2832 28.2988L32.9424 28.543L32.7969 28.667L32.9248 28.8535L33.1006 29.0645L33.1045 29.0693L33.2646 29.3193L33.2666 29.3213H33.2656L33.3896 29.5391H33.3906L33.5547 29.8086L33.5557 29.8105L33.6924 30.0527L33.6934 30.0557L33.8418 30.3682L33.9824 30.6689L33.9844 30.6729L34.1094 31.0049V31.0059L34.2266 31.3379L34.2285 31.3418H34.2275L34.3096 31.6465L34.3105 31.6494L34.377 31.9814L34.3779 31.9834V31.9844L34.4326 32.3594V32.3613L34.4678 32.749H35.7598V27.457L35.4912 27.4951ZM36.4922 32.749H37.9658V32.625L37.9932 32.2852L37.9941 32.2822L38.0488 31.9111L38.0498 31.9062L38.1279 31.6016L38.1289 31.5977L38.2188 31.3281L38.2959 31.0498L38.2979 31.0449L38.4229 30.7285L38.4238 30.7266L38.5488 30.4414V30.4404L38.7168 30.085L38.7178 30.084L38.8545 29.8105V29.8086L39.0107 29.5195L39.0137 29.5146L39.209 29.2305L39.3535 29.0117L39.3555 29.0088L39.5234 28.7939L39.6006 28.6865L39.625 28.6475L39.5791 28.5928L39.4043 28.4629V28.4619L39.2012 28.3203L38.9746 28.1836V28.1826L38.6943 28.0293V28.0303L38.4287 27.9053L38.21 27.8037V27.8027L37.9902 27.7197L37.7363 27.6465V27.6455L37.4258 27.5693L37.1875 27.5303L36.8643 27.4756L36.4766 27.4531L36.4922 32.749Z" fill="black"/>
</g>
</svg>
